<?xml version="1.0" encoding="UTF-8"?>
<svg id="Color_Picker" data-name="Color Picker" xmlns="http://www.w3.org/2000/svg" xmlns:xlink="http://www.w3.org/1999/xlink" viewBox="0 0 1270 1240">
  <defs>
    <linearGradient id="linear-gradient" x1="253.53" y1="552.74" x2="1182.23" y2="446.29" gradientTransform="translate(24.95 -25.62) rotate(2.74)" gradientUnits="userSpaceOnUse">
      <stop offset="0" stop-color="#de5568"/>
      <stop offset="1" stop-color="#bd751b"/>
    </linearGradient>
    <linearGradient id="linear-gradient-2" x1="815.25" y1="622.82" x2="815.25" y2="314.92" gradientTransform="translate(-46.2 39.59) rotate(-3.79)" gradientUnits="userSpaceOnUse">
      <stop offset="0" stop-color="#93485a"/>
      <stop offset="1" stop-color="#4d0000"/>
    </linearGradient>
    <linearGradient id="linear-gradient-3" x1="182.12" y1="1165.14" x2="182.12" y2="907.05" gradientTransform="translate(12.38 -4.37) rotate(1.05)" xlink:href="#linear-gradient"/>
    <linearGradient id="linear-gradient-4" x1="181.79" y1="1138.1" x2="181.79" y2="939.88" gradientTransform="translate(12.38 -4.37) rotate(1.05)" xlink:href="#linear-gradient"/>
  </defs>
  <path d="M287.45,920.08l-11.07-9.69,13.52-63.47,87.57-97.78,314.5-361.25-39.73-40.45,43.66-41.46s93.59,47,131.15-84.54c37.56-131.54,215.3-155.84,291-72.51,78.67,86.59,76.1,216.16-52.66,294.37,0,0-158.62-15.94-127.09,130.38l-45.2,30.13-32.36-42.18-396.13,277.88-112.43,81.5-64.72-.92Z" style="fill: url(#linear-gradient);"/>
  <path d="M750.65,312.42c-29.52,6.23-54.75-6.44-54.75-6.44l-41.82,41.25,40.27,41.13-18.42,21.04,158.17,167.83,27-17.43,31.96,41.68,45.23-27.81c-6.13-28.45-5.07-50.77.62-68.26-38.06-39.28-126.95-130.9-188.26-192.99Z" style="fill: url(#linear-gradient-2);"/>
  <path d="M168.37,1159.69s-19.99-30.4-22.03-32.14c-2.04-1.75-26.87-35.49-24.3-41,2.58-5.51-13.37-67.3-10.7-73.23,2.67-5.93,24.7-43.1,24.7-43.1,0,0,33.21-48.65,36.72-50,3.51-1.36,23.75-14,23.75-14l15.51,19.28s.45,27.64,1.19,30.92,6.37,32.96,6.24,34.82,4.43,35.18,11.1,42.6c6.67,7.42,10.39,37.38,8.44,51.01-1.96,13.63-4.04,34.09-4.99,39.19-.95,5.11-10,33.12-10,33.12l-22.34,7.28-33.29-4.74Z" style="fill: url(#linear-gradient-3);"/>
  <path d="M185.54,938.84c-25.71,24.29-73.48,158.05-18.56,191.92,77.6,47.85,18.56-191.92,18.56-191.92Z" style="fill: url(#linear-gradient-4);"/>
  <polygon points="319.99 883.97 673.39 468.46 787.47 573.77 319.99 883.97" style="fill: #ccc; opacity: .43;"/>
</svg>