<!-- Created with PixiEditor (https://pixieditor.net) -->
<svg version="1.1" viewBox="0 0 512 512" xmlns="http://www.w3.org/2000/svg">
  <path d="" fill-rule="nonzero" transform="matrix(1, 0, 0, 1, 0, 0)" fill="#ffffff" fill-opacity="0" stroke="#000000" stroke-width="1" stroke-linecap="round" stroke-linejoin="round" opacity="1" id="Path" />
  <g opacity="1" id="ColorPicker">
    <g opacity="1" id="Logo">
      <path d="M449.079 10.1632C443.844 13.5745 435.304 20.2612 425.439 28.3722C415.575 36.4833 404.385 46.0187 393.849 55.1278C383.313 64.2369 373.432 72.9195 366.185 79.3249C358.937 85.7302 354.324 89.8583 354.324 89.8583C354.324 89.8583 353.353 88.1853 351.397 86.0114C349.441 83.8376 346.5 81.1629 342.559 79.1597C338.619 77.1564 333.679 75.8245 327.725 76.3361C321.772 76.8478 314.805 79.2031 306.81 84.5742C298.815 89.9453 294.504 95.4561 292.533 100.701C290.563 105.946 290.934 110.925 292.304 115.233C293.674 119.541 296.044 123.178 298.071 125.737C300.098 128.297 301.783 129.779 301.783 129.779C301.783 129.779 291.913 137.37 276.911 148.964C261.909 160.558 241.773 176.155 221.241 192.167C200.709 208.178 179.78 224.604 163.191 237.856C146.602 251.109 134.352 261.187 131.177 264.504C128.003 267.821 125.035 272.672 122.118 278.284C119.201 283.896 116.334 290.269 113.361 296.63C110.388 302.991 107.308 309.341 103.964 314.905C100.621 320.47 97.0138 325.249 92.9867 328.471C92.9867 328.471 91.4958 330.518 89.2246 333.657C86.9535 336.795 83.9021 341.025 80.7811 345.391C77.6602 349.757 74.4697 354.258 71.9205 357.94C69.3712 361.622 67.4631 364.484 66.9069 365.57C66.3191 366.718 66.0022 367.96 65.8574 369.178C65.7127 370.396 65.74 371.589 65.8409 372.639C65.9417 373.688 66.2651 374.578 66.2651 375.238C66.2651 378.41 66.9069 379.681 66.9069 379.681C66.9069 379.681 502.16 15.835 501.559 15.4744C500.957 15.1137 499.551 14.7778 496.271 13.165C492.99 11.5522 488.398 9.54397 483.152 7.96213C477.906 6.38029 472.005 5.22486 466.107 5.31773C460.209 5.41062 454.314 6.7518 449.079 10.1632ZM-93.4465 -146.993L-213.924 -109.563M497.731 67.9779C493.431 72.5124 485.314 79.7067 475.558 87.9475C465.801 96.1884 454.404 105.476 443.545 114.196C432.686 122.917 422.364 131.07 414.757 137.044C407.15 143.018 402.258 146.811 402.258 146.811C402.258 146.811 403.727 148.068 405.512 150.385C407.296 152.702 409.395 156.079 410.653 160.318C411.911 164.556 412.329 169.657 410.751 175.421C409.173 181.186 405.599 187.615 398.874 194.511C392.149 201.407 385.952 204.653 380.439 205.645C374.925 206.636 370.096 205.372 366.108 203.246C362.119 201.12 358.972 198.132 356.821 195.676C354.67 193.219 353.517 191.294 353.517 191.294C353.517 191.294 344.27 199.633 330.161 212.3C316.052 224.966 297.08 241.959 277.629 259.268C258.177 276.577 238.246 294.202 222.22 308.13C206.194 322.059 194.071 332.291 190.237 334.815C186.402 337.339 181.097 339.383 175.052 341.239C169.007 343.096 162.223 344.765 155.431 346.542C148.639 348.319 141.839 350.203 135.764 352.487C129.689 354.772 124.338 357.457 120.443 360.838C120.443 360.838 118.614 361.925 115.691 363.608C112.767 365.291 108.749 367.57 104.369 369.951C99.989 372.332 95.2476 374.817 90.878 376.911C86.5085 379.006 82.5109 380.712 79.6187 381.535C76.7266 382.359 74.5889 382.694 73.0092 382.733C71.4295 382.772 70.4078 382.515 69.7477 382.155C69.0875 381.796 68.9194 381.793 68.5382 381.535C66.9132 380.437 66.8813 379.531 66.8813 379.531L501.465 15.3321C501.465 15.3321 502.307 17.4888 503.301 21.0073C504.294 24.5258 505.44 29.4061 506.048 34.8532C506.656 40.3004 506.726 46.3143 505.57 52.1C504.414 57.8858 502.031 63.4434 497.731 67.9779Z" fill-rule="nonzero" transform="matrix(1, 0, 0, 1, 0, 0)" fill="#ffffff" fill-opacity="1" stroke="#ffffff" stroke-width="1" stroke-linecap="round" stroke-linejoin="round" opacity="1" id="Path" />
      <path d="M449.079 10.1632C443.844 13.5745 435.304 20.2612 425.439 28.3722C415.575 36.4833 404.385 46.0187 393.849 55.1278C383.313 64.2369 373.432 72.9195 366.185 79.3249C358.937 85.7302 354.324 89.8583 354.324 89.8583C354.324 89.8583 353.353 88.1853 351.397 86.0114C349.441 83.8376 346.5 81.1629 342.559 79.1597C338.619 77.1564 333.679 75.8245 327.725 76.3361C321.772 76.8478 314.805 79.2031 306.81 84.5742C298.815 89.9453 294.504 95.4561 292.533 100.701C290.563 105.946 290.934 110.925 292.304 115.233C293.674 119.541 296.044 123.178 298.071 125.737C300.098 128.297 301.783 129.779 301.783 129.779C301.783 129.779 291.913 137.37 276.911 148.964C261.909 160.558 241.773 176.155 221.241 192.167C200.709 208.178 179.78 224.604 163.191 237.856C146.602 251.109 134.352 261.187 131.177 264.504C128.003 267.821 125.035 272.672 122.118 278.284C119.201 283.896 116.334 290.269 113.361 296.63C110.388 302.991 107.308 309.341 103.964 314.905C100.621 320.47 97.0138 325.249 92.9867 328.471C92.9867 328.471 91.4958 330.518 89.2246 333.657C86.9535 336.795 83.9021 341.025 80.7811 345.391C77.6602 349.757 74.4697 354.258 71.9205 357.94C69.3712 361.622 67.4631 364.484 66.9069 365.57C66.3191 366.718 66.0022 367.96 65.8574 369.178C65.7127 370.396 65.74 371.589 65.8409 372.639C65.9417 373.688 66.2651 374.578 66.2651 375.238C66.2651 378.41 66.9069 379.681 66.9069 379.681C66.9069 379.681 502.16 15.835 501.559 15.4744C500.957 15.1137 499.551 14.7778 496.271 13.165C492.99 11.5522 488.398 9.54397 483.152 7.96213C477.906 6.38029 472.005 5.22486 466.107 5.31773C460.209 5.41062 454.314 6.7518 449.079 10.1632ZM-93.4465 -146.993L-213.924 -109.563" fill-rule="nonzero" transform="matrix(1, 0, 0, 1, 0, 0)" fill="#ffffff" fill-opacity="1" stroke="#c7c7c4" stroke-width="0" stroke-linecap="round" stroke-linejoin="round" opacity="1" id="Path" />
      <path d="M497.731 67.9779C493.431 72.5124 485.314 79.7067 475.558 87.9475C465.801 96.1884 454.404 105.476 443.545 114.196C432.686 122.917 422.364 131.07 414.757 137.044C407.15 143.018 402.258 146.811 402.258 146.811C402.258 146.811 403.727 148.068 405.512 150.385C407.296 152.702 409.395 156.079 410.653 160.318C411.911 164.556 412.329 169.657 410.751 175.421C409.173 181.186 405.599 187.615 398.874 194.511C392.149 201.407 385.952 204.653 380.439 205.645C374.925 206.636 370.096 205.372 366.108 203.246C362.119 201.12 358.972 198.132 356.821 195.676C354.67 193.219 353.517 191.294 353.517 191.294C353.517 191.294 344.27 199.633 330.161 212.3C316.052 224.966 297.08 241.959 277.629 259.268C258.177 276.577 238.246 294.202 222.22 308.13C206.194 322.059 194.071 332.291 190.237 334.815C186.402 337.339 181.097 339.383 175.052 341.239C169.007 343.096 162.223 344.765 155.431 346.542C148.639 348.319 141.839 350.203 135.764 352.487C129.689 354.772 124.338 357.457 120.443 360.838C120.443 360.838 118.614 361.925 115.691 363.608C112.767 365.291 108.749 367.57 104.369 369.951C99.989 372.332 95.2476 374.817 90.878 376.911C86.5085 379.006 82.5109 380.712 79.6187 381.535C76.7266 382.359 74.5889 382.694 73.0092 382.733C71.4295 382.772 70.4078 382.515 69.7477 382.155C69.0875 381.796 68.9194 381.793 68.5382 381.535C66.9132 380.437 66.8813 379.531 66.8813 379.531L501.465 15.3321C501.465 15.3321 502.307 17.4888 503.301 21.0073C504.294 24.5258 505.44 29.4061 506.048 34.8532C506.656 40.3004 506.726 46.3143 505.57 52.1C504.414 57.8858 502.031 63.4434 497.731 67.9779Z" fill-rule="nonzero" transform="matrix(1, 0, 0, 1, 0, 0)" fill="#ffffff" fill-opacity="1" stroke="#ffffff" stroke-width="0" stroke-linecap="round" stroke-linejoin="round" opacity="1" id="Path" />
      <path d="M349.384 183.769C349.384 183.769 345.648 187.185 339.896 192.435C334.144 197.684 326.375 204.769 318.308 212.107C310.241 219.444 301.876 227.036 294.931 233.3C287.987 239.564 282.462 244.501 280.077 246.529C277.692 248.558 275.085 250.767 272.294 253.12C269.503 255.473 266.527 257.97 263.406 260.574C260.285 263.179 257.018 265.891 253.642 268.674C250.267 271.457 246.784 274.312 243.23 277.2C239.677 280.089 236.054 283.012 232.399 285.933C228.744 288.855 225.057 291.774 221.376 294.654C217.695 297.535 214.02 300.377 210.389 303.144C206.758 305.911 203.172 308.604 199.667 311.184C196.163 313.765 192.741 316.234 189.438 318.555C186.136 320.876 182.954 323.049 179.931 325.037C176.907 327.026 174.042 328.83 171.372 330.413C168.703 331.996 166.23 333.357 163.992 334.462L89.2597 360.901C89.2597 360.901 106.081 346.569 127.87 328.096C149.659 309.623 178.788 284.92 208.149 260.005C237.51 235.089 267.104 209.959 289.821 190.631C312.538 171.303 330.756 158.331 332.612 156.621C334.211 155.148 333.829 155.589 335.924 157.91C338.019 160.231 340.213 163.878 342.207 167.709C344.201 171.54 345.995 175.555 347.291 178.612C348.586 181.67 349.384 183.769 349.384 183.769ZM567.48 -114.002L975.89 70.8445" fill-rule="nonzero" transform="matrix(1, 0, 0, 1, 0, 0)" fill="#ffdd0a" fill-opacity="1" stroke="#ffffff" stroke-width="0" stroke-linecap="round" stroke-linejoin="round" opacity="1" id="Path" />
      <path d="M310.65 136.535C310.65 136.535 300.959 144.27 286.043 156.382C271.126 168.493 250.985 184.981 230.083 202.486C209.181 219.991 187.519 238.513 169.562 254.694C151.605 270.874 137.353 284.713 131.271 292.852L89.2597 360.901L334.068 155.769L310.65 136.535Z" fill-rule="nonzero" transform="matrix(1, 0, 0, 1, 0, 0)" fill="#dec009" fill-opacity="1" stroke="#d8e01b" stroke-width="0" stroke-linecap="round" stroke-linejoin="round" opacity="1" id="Path" />
      <path d="M48.8557 386.744C48.8557 386.744 46.0803 389.611 41.962 394.474C37.8436 399.338 32.3822 406.197 27.0099 414.18C21.6377 422.163 16.3547 431.271 12.5931 440.631C8.83149 449.991 6.59136 459.604 7.30496 468.597C8.01858 477.591 10.7578 484.266 14.4653 489.222C18.1728 494.177 22.8486 497.411 27.4351 499.521C32.0216 501.631 36.5189 502.617 39.8696 503.075C43.2203 503.534 45.4244 503.464 45.4244 503.464C45.4244 503.464 46.8161 503.562 49.0534 503.261C51.2907 502.96 54.3736 502.26 57.7561 500.664C61.1385 499.069 64.8205 496.579 68.2558 492.697C71.6911 488.815 74.8799 483.541 77.2759 476.379C79.6719 469.217 79.0937 460.034 76.8785 450.287C74.6634 440.541 70.8113 430.232 66.6598 420.818C62.5083 411.404 58.0572 402.886 54.6441 396.72C51.2309 390.555 48.8557 386.744 48.8557 386.744Z" fill-rule="nonzero" transform="matrix(1, 0, 0, 1, 0, 0)" fill="#dec009" fill-opacity="1" stroke="#ffffff" stroke-width="4" stroke-linecap="round" stroke-linejoin="round" opacity="1" id="Path" />
      <path d="M55.8619 400.231C55.8619 400.231 54.9946 401.034 53.5466 402.624C52.0986 404.214 50.0699 406.59 47.7471 409.738C45.4243 412.886 42.8073 416.805 40.1829 421.479C37.5585 426.152 34.9265 431.581 32.5736 437.749C30.2208 443.917 28.2604 449.918 26.7638 455.64C25.2672 461.363 24.2343 466.807 23.7365 471.861C23.2388 476.914 23.2761 481.578 23.9197 485.74C24.5634 489.902 25.8134 493.562 27.7411 496.608C29.6687 499.655 33.0805 501.737 37.2627 502.728C41.4449 503.72 46.3976 503.62 51.4073 502.302C56.417 500.984 61.4837 498.447 65.8938 494.565C70.3038 490.683 74.0573 485.456 76.4407 478.755C78.8241 472.055 78.7296 463.797 77.2472 455.179C75.7649 446.561 72.8946 437.583 69.7264 429.443C66.5582 421.302 63.0921 413.999 60.418 408.732C57.7439 403.464 55.8619 400.231 55.8619 400.231ZM286.68 256L256 256" fill-rule="nonzero" transform="matrix(1, 0, 0, 1, 0, 0)" fill="#ffdd0a" fill-opacity="1" stroke="#d8e01b" stroke-width="0" stroke-linecap="round" stroke-linejoin="round" opacity="1" id="Path" />
      <path d="M300.455 130.038C300.455 130.038 320.221 137.832 334.068 153.807C350.388 172.635 357.48 199.034 367.608 205.038C380.83 212.874 407.07 195.343 411.685 177.807C416.301 160.27 402.685 147.114 402.685 147.114C402.685 147.114 355.219 76.2683 334.068 75.8068C312.916 75.3452 297.152 87.4234 291.916 101.884C286.68 116.344 300.455 130.038 300.455 130.038Z" fill-rule="nonzero" transform="matrix(1, 0, 0, 1, 0, 0)" fill="#ffffff" fill-opacity="1" stroke="#000000" stroke-width="0" stroke-linecap="round" stroke-linejoin="round" opacity="0.9599999785423279" id="Path" />
      <path d="M353.292 89.5179C353.292 89.5179 417.11 33.3361 439.746 15.3321C462.383 -2.67191 473.565 5.24513 480.11 6.33605C486.655 7.42696 505.576 10.6997 506.479 24.3361C507.383 37.9724 509.373 54.8815 501.56 66.6088C493.746 78.3361 409.249 147.063 401.565 147.063C401.565 147.063 391.586 131.758 378.655 116.344C367.596 103.16 353.292 89.5179 353.292 89.5179Z" fill-rule="nonzero" transform="matrix(1, 0, 0, 1, 0, 0)" fill="#2b2b2b" fill-opacity="1" stroke="#ffffff" stroke-width="5.400000095367432" stroke-linecap="round" stroke-linejoin="round" opacity="1" id="Path" />
      <path d="M461.409 9.44662C464.502 15.3321 376.316 82.065 370.076 83.4466C363.835 84.8282 405.777 49.5861 415.168 41.8282C438.168 22.8282 458.316 3.56118 461.409 9.44662Z" fill-rule="nonzero" transform="matrix(1, 0, 0, 1, 0, 0)" fill="#ffffff" fill-opacity="0.18039216101169586" stroke="#000000" stroke-width="0" stroke-linecap="round" stroke-linejoin="round" opacity="1" id="Path" />
      <path d="M307.741 123.45C307.741 123.45 354.076 153.04 360.409 178.243L307.741 123.45ZM378.409 116.344L495.742 15.3321C495.742 15.3321 503.409 37.4466 495.742 56.4466C488.076 75.4466 402.076 136.535 402.076 136.535L396.409 141.377L378.409 116.344Z" fill-rule="nonzero" transform="matrix(1, 0, 0, 1, 0, 0)" fill="#000000" fill-opacity="0.1411764770746231" stroke="#000000" stroke-width="0" stroke-linecap="round" stroke-linejoin="round" opacity="1" id="Path" />
    </g>
  </g>
</svg>