<?xml version="1.0" encoding="UTF-8"?>
<svg id="Pomodoro_Timer" data-name="Pomodoro Timer" xmlns="http://www.w3.org/2000/svg" xmlns:xlink="http://www.w3.org/1999/xlink" viewBox="0 0 1270 1240">
  <defs>
    <linearGradient id="linear-gradient" x1="600.5" y1="1194" x2="600.5" y2="1047" gradientUnits="userSpaceOnUse">
      <stop offset="0" stop-color="#9a0000"/>
      <stop offset="1" stop-color="#950202"/>
    </linearGradient>
    <linearGradient id="linear-gradient-2" x1="127" y1="639.5" x2="1092" y2="639.5" xlink:href="#linear-gradient"/>
    <linearGradient id="linear-gradient-3" x1="604.5" y1="1076" x2="604.5" y2="203" gradientUnits="userSpaceOnUse">
      <stop offset="0" stop-color="red"/>
      <stop offset="1" stop-color="#af2d3a"/>
    </linearGradient>
    <linearGradient id="linear-gradient-4" x1="250" y1="214.36" x2="949.21" y2="214.36" gradientUnits="userSpaceOnUse">
      <stop offset="0" stop-color="#3d7a00"/>
      <stop offset="1" stop-color="#276e02"/>
    </linearGradient>
    <linearGradient id="linear-gradient-5" x1="599.61" y1="355.72" x2="599.61" y2="73" gradientUnits="userSpaceOnUse">
      <stop offset="0" stop-color="#3dc200"/>
      <stop offset="1" stop-color="#276e02"/>
    </linearGradient>
  </defs>
  <ellipse cx="600.5" cy="1120.5" rx="413.5" ry="73.5" style="fill: url(#linear-gradient); opacity: .33;"/>
  <circle cx="609.5" cy="639.5" r="482.5" style="fill: url(#linear-gradient-2);"/>
  <circle cx="604.5" cy="639.5" r="436.5" style="fill: url(#linear-gradient-3);"/>
  <ellipse cx="416" cy="522" rx="130" ry="80" style="fill: #fff; opacity: .17;"/>
  <path d="M463,367l-154.32-48.47s-27.68-33.53-32.68-40.53-26-57-26-57v-64l51-74s47-27,64-33,88,10.82,98,14.91,80,43.42,83,49.75,46.39,42.34,46.39,42.34l54.61-45s63-50,68-51,95-7,95-7c0,0,33,3,47,7s72,49,76,50,15,66,15,66c0,0-5,53.02,0,59.01s-6,57.99-23,73.99-28,29-56,40-91,30-113,30-121-24.41-135-28.71-62-1.57-75,6.07-83,9.64-83,9.64Z" style="fill: url(#linear-gradient-4);"/>
  <path d="M483.02,344.63l-131.7-41.37s-23.62-28.61-27.89-34.59-22.19-48.64-22.19-48.64v-54.62l43.52-63.15s40.11-23.04,54.62-28.16c14.51-5.12,75.1,9.24,83.64,12.73s68.27,37.05,70.83,42.46,39.59,36.13,39.59,36.13l46.6-38.4s53.77-42.67,58.03-43.52,81.07-5.97,81.07-5.97c0,0,28.16,2.56,40.11,5.97s61.45,41.82,64.86,42.67,12.8,56.33,12.8,56.33c0,0-4.27,45.25,0,50.36s-5.12,49.49-19.63,63.14c-14.51,13.65-23.9,24.75-47.79,34.14-23.9,9.39-77.66,25.6-96.44,25.6s-103.26-20.84-115.21-24.5c-11.95-3.66-52.91-1.34-64.01,5.18s-70.83,8.23-70.83,8.23Z" style="fill: url(#linear-gradient-5);"/>
</svg>